<svg width="512" height="512" viewBox="0 0 512 512" fill="none" xmlns="http://www.w3.org/2000/svg">
<rect width="512" height="512" fill="#FBF2E9"/>
<path fill-rule="evenodd" clip-rule="evenodd" d="M83.5867 32.8315L83 477.694C83 480.045 83.9339 482.3 85.5962 483.964C87.2584 485.627 89.5134 486.564 91.8661 486.568L420.52 487C421.685 487.004 422.84 486.778 423.918 486.335C424.996 485.892 425.976 485.242 426.802 484.42C427.628 483.598 428.284 482.622 428.732 481.547C429.18 480.472 429.411 479.319 429.413 478.155L430 33.2918C429.996 30.9433 429.061 28.692 427.399 27.0314C425.737 25.3708 423.484 24.4362 421.134 24.4325L92.4805 24C90.1302 23.9963 87.8743 24.9238 86.2072 26.5792C84.5401 28.2346 83.5978 30.483 83.5867 32.8315ZM181.81 232.494C189.552 232.494 197.118 234.791 203.552 239.093C209.986 243.396 214.997 249.51 217.949 256.661C220.901 263.812 221.662 271.678 220.135 279.262C218.609 286.846 214.863 293.806 209.373 299.26C203.884 304.715 196.897 308.417 189.299 309.899C181.701 311.381 173.833 310.576 166.694 307.585C159.554 304.594 153.464 299.552 149.196 293.099C144.927 286.645 142.672 279.071 142.716 271.335C142.775 261.013 146.92 251.134 154.245 243.856C161.57 236.579 171.48 232.494 181.81 232.494ZM330.799 232.689C338.544 232.673 346.12 234.955 352.564 239.248C359.009 243.54 364.033 249.649 366.998 256.798C369.963 263.948 370.736 271.817 369.219 279.406C367.702 286.995 363.963 293.963 358.476 299.426C352.99 304.889 346.003 308.6 338.403 310.089C330.802 311.577 322.931 310.777 315.786 307.788C308.642 304.8 302.547 299.758 298.275 293.303C294.002 286.848 291.745 279.27 291.789 271.531C291.92 261.246 296.077 251.421 303.368 244.161C310.66 236.901 320.506 232.783 330.799 232.689ZM146.5 405.997L216.715 406.094C220.591 406.636 224.541 406.056 228.108 404.447C231.675 402.838 234.714 400.253 236.871 396.991C239.029 393.728 240.218 389.922 240.3 386.012C240.383 382.102 239.355 378.249 237.337 374.898C237.337 374.898 213.853 324.798 181.74 324.798C149.209 324.756 126.004 374.759 126.004 374.759C123.974 378.1 122.933 381.947 123 385.855C123.068 389.763 124.242 393.572 126.387 396.841C128.532 400.109 131.559 402.704 135.119 404.324C138.678 405.945 142.624 406.525 146.5 405.997ZM365.732 406.276L295.545 406.192C291.656 406.768 287.684 406.22 284.096 404.613C280.509 403.006 277.456 400.407 275.299 397.123C273.141 393.84 271.968 390.007 271.919 386.079C271.87 382.151 272.946 378.291 275.021 374.954C275.021 374.954 298.631 324.937 330.729 324.993C363.289 324.993 386.354 375.108 386.354 375.108C388.42 378.45 389.486 382.313 389.426 386.241C389.366 390.169 388.183 393.997 386.017 397.275C383.85 400.553 380.791 403.144 377.199 404.741C373.608 406.338 369.634 406.876 365.746 406.29L365.732 406.276Z" fill="#1B3634"/>
</svg>
